<svg xmlns="http://www.w3.org/2000/svg" width="23" height="21.999" viewBox="0 0 23 21.999">
  <g id="Layer_2" data-name="Layer 2" transform="translate(0)">
    <g id="Entry" transform="translate(0)">
      <path id="Path_41247" data-name="Path 41247" d="M18.97,0h9.02a2.97,2.97,0,0,1,2.97,2.97V6.38a1.1,1.1,0,0,1-2.2,0V2.97a.774.774,0,0,0-.77-.77H18.97a.774.774,0,0,0-.77.77V19.029a.774.774,0,0,0,.77.77h9.02a.774.774,0,0,0,.77-.77v-3.85a1.1,1.1,0,0,1,2.2,0v3.85A2.97,2.97,0,0,1,27.99,22H18.97A2.97,2.97,0,0,1,16,19.029V2.97A2.97,2.97,0,0,1,18.97,0Z" transform="translate(-16)" fill="#fff"/>
      <g id="Group_22901" data-name="Group 22901" transform="translate(5.379 5.63)">
        <path id="Path_41248" data-name="Path 41248" d="M16.72,19.046a.731.731,0,0,0,.092-.026l.114-.035.1-.057.088-.044a1.109,1.109,0,0,0,.3-.3l.044-.088.057-.1.035-.114a.731.731,0,0,0,.044-.11,1.183,1.183,0,0,0,0-.44.73.73,0,0,0-.026-.092l-.035-.114-.057-.1-.044-.088a1.619,1.619,0,0,0-.136-.167l-4.044-4.043A1.1,1.1,0,1,0,11.7,14.677l2.143,2.169H1.1a1.1,1.1,0,1,0,0,2.2H16.5A1.2,1.2,0,0,0,16.72,19.046Z" transform="translate(0 -12.797)" fill="#fff"/>
        <rect id="Rectangle_4636" data-name="Rectangle 4636" width="4.915" height="2.2" rx="1.1" transform="translate(10.821 10.147) rotate(-45)" fill="#fe673a"/>
      </g>
    </g>
  </g>
</svg>
