<svg xmlns="http://www.w3.org/2000/svg" width="24" height="24" viewBox="0 0 24 24" fill="none">
    <path d="M21.7036 20.2798L17.4753 16.0545C17.2673 15.8475 16.9859 15.7312 16.6924 15.7312C16.399 15.7312 16.1175 15.8475 15.9096 16.0545C14.7953 17.1314 13.3552 17.8085 11.8149 17.9795C10.2746 18.1505 8.72106 17.8058 7.39764 16.9995C6.07423 16.1931 5.05571 14.9707 4.50163 13.5236C3.94755 12.0765 3.88921 10.4865 4.33575 9.00266C4.78229 7.51886 5.70849 6.22506 6.96926 5.32393C8.23003 4.42281 9.75414 3.96527 11.3029 4.02298C12.8516 4.08069 14.3374 4.65039 15.5276 5.64285C16.7177 6.6353 17.5451 7.99444 17.8799 9.50736C18.1197 10.6052 18.095 11.7444 17.8077 12.8308C17.7737 12.958 17.7652 13.0907 17.7825 13.2212C17.7999 13.3518 17.8428 13.4776 17.9088 13.5916C17.9748 13.7056 18.0625 13.8054 18.1671 13.8855C18.2717 13.9655 18.3911 14.0242 18.5183 14.0581C18.6456 14.0921 18.7783 14.1006 18.9089 14.0833C19.0394 14.0659 19.1653 14.023 19.2793 13.9571C19.3933 13.8911 19.4932 13.8033 19.5732 13.6987C19.6533 13.5942 19.712 13.4748 19.7459 13.3476C20.2985 11.2749 20.0944 9.07317 19.1704 7.13724C18.2464 5.20131 16.6628 3.65781 14.7037 2.78352C12.7445 1.90924 10.5379 1.76135 8.47958 2.36638C6.42124 2.97142 4.6458 4.28979 3.47162 6.0851C2.29745 7.88041 1.80134 10.0352 2.07227 12.1631C2.3432 14.291 3.36344 16.2528 4.95004 17.6967C6.53664 19.1407 8.58582 19.9723 10.7301 20.0424C12.8744 20.1125 14.9736 19.4166 16.6512 18.0794L20.2823 21.7065C20.376 21.7998 20.4872 21.8738 20.6095 21.9241C20.7317 21.9745 20.8628 22.0003 20.995 22C21.1272 21.9997 21.2581 21.9734 21.3802 21.9226C21.5023 21.8717 21.6132 21.7973 21.7065 21.7037C21.7998 21.61 21.8738 21.4988 21.9241 21.3766C21.9745 21.2543 22.0003 21.1233 22 20.9911C21.9997 20.8589 21.9734 20.728 21.9226 20.606C21.8717 20.4839 21.7973 20.3731 21.7036 20.2798Z" fill="white"/>
    <path d="M14.0406 14.0288C13.8807 13.8803 13.6759 13.7891 13.4585 13.7696C13.241 13.7501 13.0233 13.8034 12.8394 13.9211C12.3203 14.2413 11.7249 14.4164 11.115 14.4283C10.5052 14.4402 9.90337 14.2884 9.37218 13.9887C9.19241 13.8843 8.98374 13.8408 8.77721 13.8645C8.57069 13.8883 8.37735 13.978 8.22598 14.1205L8.16637 14.1767C8.05887 14.2791 7.97647 14.405 7.92559 14.5445C7.8747 14.6841 7.85672 14.8334 7.87302 14.981C7.88932 15.1286 7.93948 15.2705 8.01959 15.3955C8.09969 15.5206 8.20759 15.6255 8.33487 15.702C9.19113 16.1952 10.1659 16.4452 11.1539 16.425C12.1418 16.4048 13.1055 16.1152 13.9409 15.5874C14.0631 15.5098 14.1662 15.4058 14.2427 15.2829C14.3192 15.1601 14.3671 15.0217 14.3828 14.8779C14.3985 14.734 14.3817 14.5885 14.3336 14.4521C14.2855 14.3156 14.2073 14.1917 14.1048 14.0896L14.0406 14.0288Z" fill="#FE673A"/>
</svg>